<svg xmlns="http://www.w3.org/2000/svg" width="65.161" height="88.833" viewBox="0 0 65.161 88.833"><defs><style>.a{fill:#ba6645;}.b{fill:#97de3d;}.c{fill:#ffd2c0;}.d{fill:#f4ae98;}.e{fill:#fabe2c;}.f{fill:#ff9100;}.g{fill:#e1eef7;}.h{fill:#f4bd7a;}</style></defs><g transform="translate(-68.219)"><g transform="translate(79.074 29.629)"><rect class="a" width="4.433" height="7.887" transform="translate(39.021)"/><rect class="a" width="4.433" height="7.887"/></g><path class="b" d="M171.091,359.749v10.759a1.3,1.3,0,0,1-1.3,1.3H127.271a1.3,1.3,0,0,1-1.3-1.3V359.749a17.391,17.391,0,0,1,17.371-17.369H153.72A17.391,17.391,0,0,1,171.091,359.749Z" transform="translate(-47.731 -282.976)"/><path class="b" d="M279.631,342.375h-1.318c7.145,0,12.958,7.792,12.958,17.37V370.5c0,.719-.435,1.3-.971,1.3h5.4a1.3,1.3,0,0,0,1.3-1.3V359.745A17.39,17.39,0,0,0,279.631,342.375Z" transform="translate(-173.642 -282.972)"/><path class="c" d="M110.166,216.227H154.39a3.86,3.86,0,0,1,3.86,3.86h0a3.86,3.86,0,0,1-3.86,3.86H110.166a3.86,3.86,0,0,1-3.86-3.86h0A3.86,3.86,0,0,1,110.166,216.227Z" transform="translate(-31.478 -178.711)"/><path class="d" d="M222.8,307v8.438a5.76,5.76,0,0,0,11.519,0V307Z" transform="translate(-127.764 -253.735)"/><path class="e" d="M187.657,424.348v9.1H151.34v-9.1a1.3,1.3,0,0,1,.619-1.109l2.426-1.492v-3.486a1.3,1.3,0,0,1,1.3-1.3h27.625a1.3,1.3,0,0,1,1.3,1.3v3.486l2.426,1.492A1.3,1.3,0,0,1,187.657,424.348Z" transform="translate(-68.699 -344.616)"/><g transform="translate(89.759 58.389)"><path class="f" d="M305.936,355.614a1.3,1.3,0,0,1-1.3-1.3V337.83a1.3,1.3,0,1,1,2.6,0v16.482A1.3,1.3,0,0,1,305.936,355.614Z" transform="translate(-285.156 -336.529)"/><path class="f" d="M193.666,355.614a1.3,1.3,0,0,1-1.3-1.3V337.83a1.3,1.3,0,0,1,2.6,0v16.482A1.3,1.3,0,0,1,193.666,355.614Z" transform="translate(-192.365 -336.529)"/></g><path class="c" d="M184.713,163.267H150.125a1.3,1.3,0,0,0-1.3,1.3v9.88a18.6,18.6,0,0,0,37.191,0v-9.88A1.3,1.3,0,0,0,184.713,163.267Z" transform="translate(-66.619 -134.94)"/><path class="d" d="M273.295,163.267h-4.331c.539,0,.975.583.975,1.3v9.88c0,10.253-6.253,18.6-13.938,18.6a18.616,18.616,0,0,0,18.6-18.6v-9.88A1.3,1.3,0,0,0,273.295,163.267Z" transform="translate(-155.201 -134.94)"/><g transform="translate(91.007 35.799)"><path d="M298.741,208.936a1.261,1.261,0,0,1-.255-.026,1.3,1.3,0,0,1-.243-.073,1.331,1.331,0,0,1-.226-.12,1.371,1.371,0,0,1-.2-.163,1.309,1.309,0,0,1-.38-.92,1.243,1.243,0,0,1,.024-.253,1.308,1.308,0,0,1,.194-.468,1.271,1.271,0,0,1,.161-.2,1.373,1.373,0,0,1,.2-.163,1.333,1.333,0,0,1,.226-.12,1.3,1.3,0,1,1,.5,2.5Z" transform="translate(-280.458 -206.334)"/><path d="M200.861,208.935a1.257,1.257,0,0,1-.253-.026,1.306,1.306,0,0,1-.243-.073,1.333,1.333,0,0,1-.226-.12,1.373,1.373,0,0,1-.2-.163,1.306,1.306,0,0,1-.382-.92,1.273,1.273,0,0,1,.026-.255,1.356,1.356,0,0,1,.075-.243,1.32,1.32,0,0,1,.12-.224,1.277,1.277,0,0,1,.161-.2,1.373,1.373,0,0,1,.2-.163,1.337,1.337,0,0,1,.226-.12,1.308,1.308,0,0,1,1.418.283,1.275,1.275,0,0,1,.161.2,1.319,1.319,0,0,1,.12.224,1.353,1.353,0,0,1,.075.243,1.351,1.351,0,0,1,0,.51,1.353,1.353,0,0,1-.075.243,1.317,1.317,0,0,1-.12.224,1.273,1.273,0,0,1-.161.2,1.372,1.372,0,0,1-.2.163,1.332,1.332,0,0,1-.226.12,1.306,1.306,0,0,1-.243.073A1.261,1.261,0,0,1,200.861,208.935Z" transform="translate(-199.56 -206.333)"/><path class="f" d="M230.211,454.769H219.8a1.3,1.3,0,1,1,0-2.6h10.41a1.3,1.3,0,1,1,0,2.6Z" transform="translate(-215.214 -409.514)"/></g><path class="g" d="M237.528,253.5h0a3.878,3.878,0,0,1-3.878-3.878V247.2h7.755v2.425A3.878,3.878,0,0,1,237.528,253.5Z" transform="translate(-136.728 -204.309)"/><path class="h" d="M132.874,28.6,122.62,20.685,117.739.988A1.3,1.3,0,0,0,116.476,0h-9.734a1.3,1.3,0,0,0-.557.125L100.8,2.676,95.416.125A1.3,1.3,0,0,0,94.858,0H85.124a1.3,1.3,0,0,0-1.263.988l-4.881,19.7L68.726,28.6a1.3,1.3,0,0,0,.795,2.332h62.558a1.3,1.3,0,0,0,.795-2.332Z" transform="translate(0 0)"/><path class="f" d="M130.237,106.823h43.64l-.645-2.6H130.882Z" transform="translate(-51.257 -86.138)"/><path class="f" d="M347.024,104.22h-6.512l.447,2.6h6.711Z" transform="translate(-225.049 -86.138)"/></g></svg>